<svg width="12" height="12" viewBox="0 0 12 12" fill="none" xmlns="http://www.w3.org/2000/svg">
<path d="M9.9375 0.3125H2.0625C1.59853 0.313007 1.1537 0.497544 0.825623 0.825623C0.497544 1.1537 0.313007 1.59853 0.3125 2.0625V9.9375C0.313007 10.4015 0.497544 10.8463 0.825623 11.1744C1.1537 11.5025 1.59853 11.687 2.0625 11.6875H9.9375C10.4015 11.687 10.8463 11.5025 11.1744 11.1744C11.5025 10.8463 11.687 10.4015 11.6875 9.9375V2.0625C11.687 1.59853 11.5025 1.1537 11.1744 0.825623C10.8463 0.497544 10.4015 0.313007 9.9375 0.3125ZM8.95996 4.09387L5.28496 8.46887C5.24465 8.51688 5.19449 8.55567 5.13788 8.58261C5.08126 8.60955 5.01952 8.62401 4.95684 8.625H4.94945C4.88813 8.62498 4.8275 8.61207 4.77149 8.5871C4.71548 8.56213 4.66535 8.52567 4.62434 8.48008L3.04934 6.73008C3.00934 6.68765 2.97822 6.63766 2.95782 6.58304C2.93742 6.52842 2.92814 6.47027 2.93053 6.41201C2.93292 6.35375 2.94693 6.29656 2.97174 6.24379C2.99655 6.19103 3.03166 6.14375 3.075 6.10475C3.11835 6.06574 3.16905 6.0358 3.22413 6.01667C3.27921 5.99754 3.33756 5.98961 3.39574 5.99335C3.45393 5.9971 3.51078 6.01243 3.56296 6.03846C3.61514 6.06449 3.66158 6.10069 3.69957 6.14492L4.93797 7.52086L8.29004 3.53113C8.36523 3.4442 8.47161 3.39035 8.58618 3.38122C8.70076 3.37209 8.81432 3.40842 8.90233 3.48234C8.99034 3.55627 9.04572 3.66186 9.05651 3.77629C9.06729 3.89072 9.03261 4.0048 8.95996 4.09387Z" fill="#BABABA"/>
</svg>
