<svg width="19" height="19" viewBox="0 0 19 19" fill="none" xmlns="http://www.w3.org/2000/svg">
<path d="M15.9688 0.15625H3.03125C2.26901 0.157082 1.53822 0.460251 0.999237 0.999237C0.460251 1.53822 0.157082 2.26901 0.15625 3.03125V15.9688C0.157082 16.731 0.460251 17.4618 0.999237 18.0008C1.53822 18.5397 2.26901 18.8429 3.03125 18.8438H15.9688C16.731 18.8429 17.4618 18.5397 18.0008 18.0008C18.5397 17.4618 18.8429 16.731 18.8438 15.9688V3.03125C18.8429 2.26901 18.5397 1.53822 18.0008 0.999237C17.4618 0.460251 16.731 0.157082 15.9688 0.15625ZM14.3628 6.3685L8.32529 13.556C8.25907 13.6349 8.17666 13.6986 8.08365 13.7429C7.99065 13.7871 7.88922 13.8109 7.78623 13.8125H7.7741C7.67336 13.8125 7.57375 13.7913 7.48173 13.7502C7.38972 13.7092 7.30735 13.6493 7.23998 13.5744L4.65248 10.6994C4.58677 10.6297 4.53565 10.5476 4.50213 10.4578C4.46861 10.3681 4.45337 10.2726 4.4573 10.1769C4.46123 10.0812 4.48425 9.9872 4.52501 9.90051C4.56577 9.81383 4.62345 9.73616 4.69465 9.67208C4.76585 9.60801 4.84915 9.55881 4.93964 9.52738C5.03013 9.49596 5.12599 9.48293 5.22158 9.48908C5.31717 9.49523 5.41057 9.52043 5.49629 9.56319C5.58201 9.60595 5.65831 9.66541 5.72072 9.73809L7.75523 11.9986L13.2622 5.444C13.3857 5.30119 13.5605 5.21272 13.7487 5.19772C13.937 5.18272 14.1235 5.2424 14.2681 5.36385C14.4127 5.4853 14.5037 5.65877 14.5214 5.84676C14.5391 6.03476 14.4821 6.22217 14.3628 6.3685Z" fill="#3A3A3A"/>
</svg>
