<svg width="83" height="83" viewBox="0 0 83 83" fill="none" xmlns="http://www.w3.org/2000/svg">
<path d="M73.1667 41.5V81.0834H9.8335V41.5" stroke="white" stroke-width="3" stroke-linecap="round" stroke-linejoin="round"/>
<path d="M81.0832 21.7085H1.9165V41.5002H81.0832V21.7085Z" stroke="white" stroke-width="3" stroke-linecap="round" stroke-linejoin="round"/>
<path d="M41.5 81.0836V21.7085" stroke="white" stroke-width="3" stroke-linecap="round" stroke-linejoin="round"/>
<path d="M41.4998 21.7082H23.6873C21.0628 21.7082 18.5458 20.6656 16.6899 18.8097C14.8341 16.9539 13.7915 14.4369 13.7915 11.8123C13.7915 9.1878 14.8341 6.67075 16.6899 4.81493C18.5458 2.9591 21.0628 1.9165 23.6873 1.9165C37.5415 1.9165 41.4998 21.7082 41.4998 21.7082Z" stroke="white" stroke-width="3" stroke-linecap="round" stroke-linejoin="round"/>
<path d="M41.5 21.7082H59.3125C61.9371 21.7082 64.4541 20.6656 66.3099 18.8097C68.1658 16.9539 69.2084 14.4369 69.2084 11.8123C69.2084 9.1878 68.1658 6.67075 66.3099 4.81493C64.4541 2.9591 61.9371 1.9165 59.3125 1.9165C45.4583 1.9165 41.5 21.7082 41.5 21.7082Z" stroke="white" stroke-width="3" stroke-linecap="round" stroke-linejoin="round"/>
</svg>
