<svg width="60" height="60" viewBox="0 0 60 60" fill="none" xmlns="http://www.w3.org/2000/svg">
<path d="M27.3623 42.8295L40.5866 31.8258C40.8545 31.603 41.07 31.3238 41.218 31.0083C41.3659 30.6928 41.4426 30.3485 41.4426 30.0001C41.4426 29.6516 41.3659 29.3073 41.218 28.9918C41.07 28.6763 40.8545 28.3971 40.5866 28.1743L27.3623 17.1706C27.0155 16.8822 26.5937 16.6985 26.1463 16.6411C25.699 16.5836 25.2445 16.6547 24.8361 16.8461C24.4276 17.0374 24.0822 17.3412 23.84 17.7217C23.5979 18.1022 23.4691 18.5438 23.4688 18.9949V41.0052C23.4691 41.4563 23.5979 41.8979 23.84 42.2784C24.0822 42.6589 24.4276 42.9627 24.8361 43.154C25.2445 43.3454 25.699 43.4165 26.1463 43.359C26.5937 43.3016 27.0155 43.1179 27.3623 42.8295Z" fill="white" fill-opacity="0.85"/>
<path d="M58.5 30C58.5 14.2656 45.7344 1.5 30 1.5C14.2656 1.5 1.5 14.2656 1.5 30C1.5 45.7344 14.2656 58.5 30 58.5C45.7344 58.5 58.5 45.7344 58.5 30Z" stroke="white" stroke-opacity="0.85" stroke-width="2" stroke-miterlimit="10"/>
</svg>
